<svg width="70" height="70" viewBox="0 0 70 70" fill="none" xmlns="http://www.w3.org/2000/svg">
<path d="M59.7903 7.29163H10.207L14.582 56.875L34.9986 62.7083L55.4153 56.875L59.7903 7.29163Z" fill="#0277BD"/>
<path d="M35 11.6666V58.1875L51.3333 53.5208L54.9792 11.6666H35Z" fill="#039BE5"/>
<path d="M48.2708 18.9584H35V24.7917H42.1458L41.7083 30.625H35V36.4584H41.4167L40.9792 43.0209L35 45.0625V51.1875L46.5208 47.3959L47.5417 30.625L48.2708 18.9584Z" fill="white"/>
<path d="M34.9986 18.9584V24.7917H22.0195L21.582 18.9584H34.9986ZM28.2903 30.625L28.582 36.4584H34.9986V30.625H28.2903ZM28.8736 39.375H23.0403L23.4778 47.3959L34.9986 51.1875V45.0625L29.0195 43.0209L28.8736 39.375Z" fill="#EEEEEE"/>
</svg>
