<svg width="70" height="70" viewBox="0 0 70 70" fill="none" xmlns="http://www.w3.org/2000/svg">
<path d="M61.5429 32.2291L37.7721 8.45829C37.0429 7.72913 36.0221 7.29163 35.0013 7.29163C33.9804 7.29163 32.9596 7.72913 32.2304 8.45829L27.1263 13.5625L33.1054 19.5416C33.6888 19.25 34.2721 19.1041 35.0013 19.1041C37.4804 19.1041 39.3763 21 39.3763 23.4791C39.3763 24.2083 39.2304 24.7916 38.9388 25.375L44.7721 31.2083C45.3554 30.9166 45.9388 30.7708 46.6679 30.7708C49.1471 30.7708 51.0429 32.6666 51.0429 35.1458C51.0429 37.625 49.1471 39.5208 46.6679 39.5208C44.1888 39.5208 42.2929 37.625 42.2929 35.1458C42.2929 34.4166 42.4388 33.8333 42.7304 33.25L36.8971 27.4166C36.7513 27.4166 36.6054 27.5625 36.4596 27.5625V42.7291C38.2096 43.3125 39.3763 44.9166 39.3763 46.8125C39.3763 49.2916 37.4804 51.1875 35.0013 51.1875C32.5221 51.1875 30.6263 49.2916 30.6263 46.8125C30.6263 44.9166 31.7929 43.3125 33.5429 42.7291V27.4166C31.7929 26.8333 30.6263 25.2291 30.6263 23.3333C30.6263 22.6041 30.7721 22.0208 31.0638 21.4375L25.0846 15.4583L8.45963 32.2291C7.73047 32.9583 7.29297 33.9791 7.29297 35C7.29297 36.0208 7.73047 37.0416 8.45963 37.7708L32.2304 61.5416C32.9596 62.2708 33.9804 62.7083 35.0013 62.7083C36.0221 62.7083 37.0429 62.2708 37.7721 61.5416L61.5429 37.7708C62.2721 37.0416 62.7096 36.0208 62.7096 35C62.7096 33.9791 62.2721 32.9583 61.5429 32.2291Z" fill="#F4511E"/>
</svg>
