<svg width="70" height="70" viewBox="0 0 70 70" fill="none" xmlns="http://www.w3.org/2000/svg">
<path d="M34.4416 1.40002H34.702C40.9796 1.40002 46.854 3.11642 51.8856 6.10402L51.7316 6.01722C56.9704 9.08042 61.2124 13.3224 64.1888 18.3988L64.2756 18.5612C67.1876 23.5144 68.9068 29.47 68.9068 35.826C68.9068 50.9628 59.1544 63.826 45.5912 68.4684L45.3476 68.5412C45.1712 68.5972 44.9696 68.628 44.7624 68.628C44.3088 68.628 43.8888 68.4768 43.55 68.2248L43.5556 68.2276C43.1972 67.9056 42.9732 67.4408 42.9732 66.9228C42.9732 66.9088 42.9732 66.8948 42.9732 66.8836V66.8864C42.9732 66.7968 42.9807 65.6525 42.9956 63.4536C43.0106 61.2547 43.018 59.2443 43.018 57.4224C43.0376 57.2124 43.0488 56.9716 43.0488 56.7252C43.0488 54.5076 42.1444 52.5028 40.6856 51.0552C42.416 50.8844 43.9784 50.5988 45.496 50.2012L45.2832 50.2488C46.8876 49.8008 48.2876 49.2044 49.5868 48.4512L49.5 48.4988C50.9224 47.7148 52.1264 46.718 53.1176 45.5364L53.1344 45.5168C54.176 44.184 54.9908 42.616 55.4864 40.9108L55.5116 40.8128C56.0968 38.9004 56.4328 36.7024 56.4328 34.426C56.4328 34.3 56.4328 34.1712 56.43 34.0452V34.0648C56.43 34.0032 56.4328 33.9332 56.4328 33.8632C56.4328 30.3688 55.0832 27.1908 52.8796 24.8192L52.888 24.8276C53.3584 23.5956 53.63 22.1732 53.63 20.6864C53.63 18.8692 53.224 17.15 52.4988 15.6072L52.5296 15.68C52.2076 15.6184 51.8408 15.582 51.4628 15.582C50.5276 15.582 49.6456 15.8004 48.8616 16.1868L48.8952 16.1728C47.3048 16.7608 45.944 17.4272 44.6616 18.2056L44.768 18.144L43.0628 19.2192C40.4812 18.48 37.516 18.0544 34.4528 18.0544C31.3896 18.0544 28.4244 18.48 25.6132 19.2752L25.84 19.2192C25.3622 18.8907 24.7266 18.4866 23.9332 18.0068C22.8888 17.4076 21.654 16.828 20.3716 16.3408L20.1868 16.2792C19.3664 15.848 18.3948 15.596 17.3616 15.596C17.0144 15.596 16.6728 15.624 16.3424 15.68L16.3788 15.6744C15.6844 17.1416 15.2784 18.8636 15.2784 20.6808C15.2784 22.1676 15.55 23.5928 16.0484 24.906L16.0204 24.8248C13.8224 27.188 12.4756 30.366 12.4756 33.8604C12.4756 33.9304 12.4756 34.0032 12.4784 34.0732V34.062C12.4756 34.1712 12.4756 34.2972 12.4756 34.426C12.4756 36.6912 12.8116 38.8808 13.4388 40.9416L13.3968 40.782C13.926 42.5824 14.7296 44.1476 15.7768 45.5224L15.7516 45.486C16.7428 46.704 17.9412 47.7064 19.2992 48.4596L19.3608 48.4904C20.5704 49.196 21.9732 49.7924 23.4488 50.2096L23.5776 50.2404C24.8824 50.5904 26.4448 50.876 28.0436 51.0356L28.1724 51.0468C26.9656 52.2452 26.162 53.8468 25.9772 55.6332L25.9744 55.6668C25.3948 55.9496 24.72 56.1792 24.0172 56.3276L23.9584 56.3388C23.2416 56.4816 22.4212 56.5628 21.5784 56.5628C21.5168 56.5628 21.4552 56.5628 21.3936 56.5628H21.402C20.2988 56.5404 19.2852 56.182 18.448 55.5884L18.4648 55.5996C17.426 54.8744 16.586 53.9336 15.998 52.8388L15.9784 52.7968C15.424 51.856 14.6932 51.0776 13.828 50.4812L13.8028 50.4644C13.1728 49.9912 12.4308 49.6216 11.63 49.4004L11.5852 49.3892L10.6892 49.2548C10.6248 49.2492 10.5492 49.2464 10.4736 49.2464C10.0816 49.2464 9.70922 49.3248 9.37042 49.462L9.39002 49.4536C9.15109 49.588 9.07642 49.7597 9.16602 49.9688C9.27522 50.2096 9.40962 50.4168 9.57202 50.5988L9.56922 50.596C9.74002 50.7976 9.93322 50.974 10.1432 51.128L10.1516 51.1336L10.4652 51.3576C11.2576 51.772 11.91 52.3488 12.4056 53.046L12.4168 53.0628C12.9516 53.7264 13.422 54.4768 13.8 55.2804L13.828 55.3476L14.276 56.378C14.654 57.5036 15.34 58.4444 16.236 59.1248L16.25 59.136C17.09 59.7912 18.1036 60.2616 19.2096 60.4744L19.2544 60.48C20.1784 60.6592 21.2536 60.7712 22.3512 60.7936H22.3708C22.4968 60.7992 22.6424 60.7992 22.7908 60.7992C23.5216 60.7992 24.2384 60.7404 24.9384 60.6256L24.8628 60.6368L25.8932 60.4576C25.8932 61.5944 25.9007 62.9179 25.9156 64.428C25.9306 65.9381 25.938 66.7529 25.938 66.8724V66.9116C25.938 67.4296 25.714 67.8944 25.3556 68.2164C25.0224 68.4656 24.6024 68.6168 24.146 68.6168C23.936 68.6168 23.7344 68.586 23.5468 68.5272L23.5608 68.53C9.75963 63.8008 0.015625 50.9376 0.015625 35.798C0.015625 29.4476 1.72922 23.4976 4.72242 18.3848L4.63282 18.5472C7.69602 13.3084 11.938 9.06642 17.0144 6.09002L17.1768 6.00322C22.046 3.10802 27.9148 1.39722 34.1812 1.39722H34.4556H34.4416V1.40002ZM13.0496 50.8648C13.1392 50.6557 13.0347 50.4766 12.736 50.3272C12.4374 50.2376 12.2432 50.2675 12.1536 50.4168C12.064 50.6259 12.1686 50.8051 12.4672 50.9544C12.736 51.1336 12.9302 51.1037 13.0496 50.8648ZM14.4412 52.3908C14.6503 52.2415 14.6204 52.0025 14.3516 51.674C14.053 51.4052 13.814 51.3604 13.6348 51.5396C13.4258 51.6889 13.4556 51.9279 13.7244 52.2564C14.0212 52.5495 14.2602 52.5933 14.4412 52.388V52.3908ZM15.7852 54.4068C16.054 54.1977 16.054 53.914 15.7852 53.5556C15.5463 53.1673 15.2924 53.0777 15.0236 53.2868C14.7548 53.4361 14.7548 53.7049 15.0236 54.0932C15.2924 54.4815 15.5463 54.586 15.7852 54.4068ZM17.6668 56.2912C17.9058 56.0523 17.846 55.7685 17.4876 55.44C17.1292 55.0816 16.8306 55.0368 16.5916 55.3056C16.3228 55.5445 16.3826 55.8283 16.7708 56.1568C17.1292 56.5152 17.4279 56.5563 17.6668 56.28V56.2912ZM20.2232 57.4112C20.3128 57.0827 20.1187 56.8437 19.6408 56.6944C19.1928 56.5749 18.9091 56.6795 18.7896 57.008C18.6702 57.3365 18.8643 57.5605 19.372 57.68C19.82 57.8611 20.1038 57.7715 20.2232 57.4112ZM23.0484 57.6352C23.0484 57.2469 22.7946 57.0827 22.2868 57.1424C21.809 57.1424 21.57 57.3067 21.57 57.6352C21.57 58.0235 21.8239 58.1877 22.3316 58.128C22.8095 58.1299 23.0484 57.9637 23.0484 57.6352ZM25.6496 57.1872C25.5899 56.8587 25.3211 56.7243 24.8432 56.784C24.3654 56.8736 24.1563 57.0976 24.216 57.456C24.2758 57.8144 24.5446 57.9339 25.0224 57.8144C25.5003 57.6949 25.7075 57.4859 25.6496 57.1872Z" fill="white"/>
</svg>
