<svg width="70" height="70" viewBox="0 0 70 70" fill="none" xmlns="http://www.w3.org/2000/svg">
<path d="M10.488 10.465L14.319 53.8795C14.478 55.6835 15.7336 57.2045 17.4749 57.7018L32.9959 62.1366C34.3055 62.5114 35.6924 62.5114 37.0019 62.1366L52.523 57.7018C54.2642 57.2045 55.5199 55.685 55.6788 53.8795L59.5099 10.465C59.6615 8.75871 58.3184 7.29163 56.6063 7.29163H13.393C11.6809 7.29163 10.3378 8.75871 10.488 10.465Z" fill="url(#paint0_linear_134_48)"/>
<path d="M35 11.6666V58.1875L49.4025 54.072C50.5648 53.7395 51.4019 52.7245 51.5069 51.5214L54.8406 13.2518C54.915 12.3987 54.2442 11.6666 53.3881 11.6666H35Z" fill="#F09601"/>
<path d="M35 36.4584V30.625H47.5417L46.5208 47.3959L35 51.1875V45.0625L40.9792 43.0209L41.4167 36.4584H35ZM47.9792 24.7917L48.4167 18.9584H35V24.7917H47.9792Z" fill="white"/>
<path d="M35.0014 45.0625V51.1875L23.4805 47.3959L22.8972 39.375H28.7305L29.0222 43.0209L35.0014 45.0625ZM27.8555 24.7917H35.0014V18.9584H21.7305L22.7514 36.4584H35.0014V30.625H28.293L27.8555 24.7917Z" fill="#D6E0E9"/>
<path opacity="0.05" d="M48.417 18.9583L47.9795 24.7917H35.0003H27.8545L28.292 30.625H35.0003H47.542L46.5211 47.3958L35.0003 51.1875L23.4795 47.3958L22.8961 39.375H28.7295L29.0211 43.0208L35.0003 45.0625L40.9795 43.0208L41.417 36.4583H35.0003H22.7503L21.7295 18.9583H35.0003H48.417ZM49.9891 17.5H48.417H35.0003H21.7295H20.1836L20.2741 19.0429L21.2949 36.5429L21.3751 37.9167H21.3284L21.4422 39.4815L22.0255 47.5023L22.097 48.4765L23.0245 48.7813L34.5453 52.5729L35.0003 52.7231L35.4568 52.5729L46.9776 48.7813L47.9168 48.4721L47.9766 47.4848L48.9974 30.714L49.0922 29.1667H47.542H35.0003H29.6453L29.4266 26.25H35.0003H47.9795H49.3328L49.4334 24.901L49.8709 19.0677L49.9891 17.5ZM30.0755 37.9167H35.0003H39.858L39.5882 41.9548L35.0003 43.521L30.3978 41.9504L30.182 39.2583L30.0755 37.9167Z" fill="black"/>
<path opacity="0.07" d="M48.4174 18.9583L47.9799 24.7916H35.0007H27.8549L28.2924 30.625H35.0007H47.5424L46.5216 47.3958L35.0007 51.1875L23.4799 47.3958L22.8966 39.375H28.7299L29.0216 43.0208L35.0007 45.0625L40.9799 43.0208L41.4174 36.4583H35.0007H22.7507L21.7299 18.9583H35.0007H48.4174ZM49.2035 18.2291H48.4174H35.0007H21.7299H20.957L21.0022 19.0006L22.023 36.5006L22.0624 37.1875H22.7507H35.0007H40.6387L40.2857 42.487L35.0007 44.2925L29.7099 42.4856L29.4562 39.3166L29.4022 38.6458H28.7299H22.8966H22.112L22.1689 39.4275L22.7522 47.4483L22.7872 47.9354L23.251 48.0885L34.7718 51.8802L35.0007 51.9545L35.2282 51.8802L46.7491 48.0885L47.2187 47.9339L47.2493 47.4395L48.2701 30.6687L48.3168 29.8958H47.5424H35.0007H28.9691L28.641 25.5208H35.0007H47.9799H48.6566L48.7076 24.8456L49.1451 19.0123L49.2035 18.2291Z" fill="black"/>
<defs>
<linearGradient id="paint0_linear_134_48" x1="26.553" y1="3.51892" x2="49.8149" y2="67.4275" gradientUnits="userSpaceOnUse">
<stop stop-color="#F09701"/>
<stop offset="1" stop-color="#E36001"/>
</linearGradient>
</defs>
</svg>
