<svg width="70" height="70" viewBox="0 0 70 70" fill="none" xmlns="http://www.w3.org/2000/svg">
<path fill-rule="evenodd" clip-rule="evenodd" d="M66.9515 28.2524L69.8801 28.2685C69.8801 28.2685 64.4354 35.6464 63.9908 36.2477C63.8464 36.4424 63.6271 36.6524 63.5158 36.9127C63.2346 37.567 62.9458 39.0024 62.9458 39.0024L60.2663 39.0158C60.2663 39.0158 60.6833 37.5196 60.666 36.7227C60.651 36.0265 60.2955 35.3311 60.0962 34.6329C59.8947 33.9261 59.6211 32.543 59.6211 32.543H62.376L62.7559 34.0629L66.9515 28.2524Z" fill="white"/>
<path fill-rule="evenodd" clip-rule="evenodd" d="M61.4052 29.8084C61.9456 30.1342 62.2773 31.9315 62.2773 31.9315C62.2773 31.9315 59.4494 31.9732 57.9105 31.9732H56.5806L54.9657 39.0024H52.496C52.496 39.0024 54.033 31.3634 54.3959 29.9784C54.5134 29.53 55.2014 29.607 56.3631 29.607H58.2182C59.4162 29.607 60.8163 29.454 61.4052 29.8084ZM49.9075 33.2318C49.9075 33.2318 49.9845 32.7806 49.6464 32.2581C49.3575 31.8127 49.0908 31.709 48.3307 31.6852C46.1849 31.6178 46.2266 33.208 46.2266 33.208L49.9075 33.2318ZM52.2347 31.4107C52.5492 32.5451 51.9498 35.2104 51.9498 35.2104C51.9498 35.2104 48.8198 35.1582 47.1053 35.2104C46.5723 35.2267 45.9342 35.1524 45.7755 35.4004C45.5522 35.748 45.8571 36.2829 46.1155 36.5089C46.4129 36.7691 46.9921 36.7988 47.2004 36.8252C48.5919 37.002 51.5043 36.8708 51.5043 36.8708L50.9998 39.1048C50.9998 39.1048 46.8841 39.3113 44.8255 38.8199C44.4191 38.7231 44.038 38.5275 43.7806 38.2501C43.7103 38.1742 43.6494 38.0707 43.5829 37.9813C43.5299 37.9099 43.3751 37.6754 43.3056 37.49C42.8355 36.2371 43.3607 33.8369 43.8756 32.5507C43.9354 32.4016 44.0104 32.2126 44.0895 32.0519C44.1882 31.8516 44.2717 31.6255 44.3506 31.5057C44.4036 31.4231 44.4694 31.37 44.5245 31.292C44.5881 31.1999 44.662 31.1106 44.7305 31.0309C44.9206 30.8105 45.1362 30.6546 45.3955 30.4611C46.2532 29.8187 47.8053 29.3201 49.67 29.511C50.3721 29.5832 51.4323 29.8339 51.9498 30.5559C52.0885 30.7487 52.157 31.1314 52.2347 31.4107ZM40.9072 29.5982L43.302 29.5841C43.302 29.5841 41.9673 35.9152 41.2871 39.0024H38.5322C36.607 39.0024 34.8924 39.2409 34.1629 37.8625C33.4552 36.5241 34.1306 34.3232 34.4478 32.8279C34.672 31.7697 35.1442 29.6068 35.1442 29.6068L37.6254 29.5841C37.6254 29.5841 36.9243 32.9515 36.6325 34.6329C36.5281 35.2351 36.3126 35.8022 36.5377 36.2475C36.7513 36.6714 37.0506 36.7017 37.9624 36.7226C38.2513 36.7295 39.1974 36.7226 39.1974 36.7226L40.9072 29.5982ZM29.6983 34.1578C29.949 33.2669 30.3148 32.3009 30.2683 31.4981C30.218 30.6395 29.498 29.8577 29.0334 29.6934C27.6343 29.1994 26.3244 29.89 25.8037 30.4533C25.1303 31.1828 24.9022 32.035 24.6638 33.2081C24.4863 34.079 24.3408 34.9985 24.6638 35.6777C25.2355 36.8785 27.0186 36.6163 28.9384 36.6278C29.2233 35.864 29.4589 35.0063 29.6983 34.1578ZM33.023 30.6433C33.2965 32.6323 32.247 34.8277 31.524 36.7369C32.2612 36.8034 32.9072 36.7266 32.9537 36.7816C33.0021 36.8528 32.4596 39.0604 32.2705 39.0661C31.6855 39.0813 29.7468 39.0974 28.9384 39.0974C26.3004 39.0974 23.8327 39.2693 22.5742 37.9576C22.0631 37.4247 21.7097 36.5107 21.6241 35.8677C21.4816 34.7944 21.6602 33.6126 21.9092 32.6382C22.1343 31.7584 22.4229 30.9282 22.8591 30.1682C23.9676 28.2334 25.8959 26.7971 29.1283 27.1287C29.7553 27.1932 30.6557 27.4677 31.2182 27.7935C31.257 27.8164 31.3931 27.9246 31.4242 27.9437C32.1843 28.4272 32.8767 29.5813 33.023 30.6433ZM21.3515 29.6097C21.1919 30.3364 21.0324 31.1601 20.8642 31.8781H18.2045C18.4105 31.0822 18.5683 30.2908 18.7745 29.5984C19.6255 29.5984 20.4169 29.6097 21.3516 29.6097M18.1095 32.5431H20.6743C20.3389 34.3992 19.6749 37.3932 19.1544 39.4774C18.8286 40.7817 18.6111 41.7334 17.7295 42.422C17.6506 42.4838 17.6051 42.4544 17.5395 42.5171C17.3771 42.672 16.6257 42.8516 16.2098 42.897C15.5334 42.9703 14.7687 42.9066 13.9375 42.8895C14.155 42.0945 14.4011 41.1397 14.595 40.4272C16.6212 40.6724 16.6724 38.7573 17.0647 36.9127C17.2916 35.8468 17.9795 32.9705 18.1095 32.5431Z" fill="white"/>
<path fill-rule="evenodd" clip-rule="evenodd" d="M12.1268 37.3877L12.0718 37.5301C11.1353 39.3539 9.47566 40.4729 7.10851 40.5222C6.00191 40.545 4.94754 40.2611 4.25875 39.9524C2.77234 39.2845 1.52205 38.046 0.839274 36.7227C-0.140179 34.8257 -0.316819 32.1869 1.71974 30.2159C1.75119 30.2159 1.47269 30.6433 1.50414 30.6433L1.44808 30.8257C-0.0194561 35.4203 4.50197 39.3578 8.8972 38.9074C9.95349 38.7991 11.3004 38.2207 12.1268 37.3877Z" fill="#21609B"/>
<path fill-rule="evenodd" clip-rule="evenodd" d="M9.46872 35.4878C10.5745 35.4954 11.7295 34.9786 12.4135 34.253C11.8151 35.7719 10.0825 36.7482 7.75905 36.4378C5.81355 36.1774 3.96032 34.2198 3.76946 32.2581C3.62987 30.8305 4.12739 29.9785 4.94729 28.9449C4.66237 29.4855 4.55587 29.9023 4.52935 30.1682C4.2179 33.2564 6.9963 35.4716 9.46872 35.4878Z" fill="#21609B"/>
<path fill-rule="evenodd" clip-rule="evenodd" d="M12.2988 31.652C12.1269 32.0463 11.1372 32.7909 10.7001 32.884C8.96938 33.2527 7.861 32.432 7.28036 31.4981C7.19409 31.3586 7.03454 30.9777 7.00596 30.8808C6.78079 30.1152 6.88428 28.9572 7.55598 28.3578C7.35364 28.9278 7.32411 29.5898 7.43061 30.0202C7.49514 30.2803 7.69175 30.7346 7.88848 31.0204C8.24641 31.5409 8.4735 31.6673 8.93329 31.9438C9.14042 32.0682 9.36259 32.168 9.45856 32.1953C9.89456 32.3237 10.8149 32.6618 12.2988 31.652Z" fill="#21609B"/>
</svg>
