<svg width="70" height="70" viewBox="0 0 70 70" fill="none" xmlns="http://www.w3.org/2000/svg">
<path d="M8.75 61.25V8.75H61.25V61.25H8.75Z" fill="#EAE112"/>
<path d="M43.075 48.0477C44.0842 49.6869 45.1809 51.2575 47.504 51.2575C49.4552 51.2575 50.479 50.2877 50.479 48.9461C50.479 47.3405 49.4202 46.7702 47.2736 45.8355L46.0967 45.3338C42.7002 43.893 40.4413 42.0875 40.4413 38.274C40.4413 34.7594 43.1319 32.0848 47.3363 32.0848C50.3302 32.0848 52.4813 33.1217 54.0329 35.8371L50.3667 38.1807C49.5602 36.7398 48.6881 36.1725 47.3363 36.1725C45.9567 36.1725 45.0831 37.0432 45.0831 38.1807C45.0831 39.5865 45.9581 40.1552 47.9779 41.0259L49.1548 41.5275C53.1579 43.2323 55.4154 44.9736 55.4154 48.8877C55.4154 53.1052 52.0846 55.4167 47.6134 55.4167C43.2398 55.4167 40.7563 53.2219 39.3738 50.505L43.075 48.0477ZM26.1788 48.1673C26.9167 49.4886 28.0381 50.505 29.6511 50.505C31.194 50.505 32.0821 49.8955 32.0821 47.5257V32.0834H36.9427V48.2723C36.9427 53.1825 34.0946 55.4167 29.9354 55.4167C26.1773 55.4167 23.4648 52.8705 22.3594 50.505L26.1788 48.1673Z" fill="#000001"/>
</svg>
