<svg width="70" height="70" viewBox="0 0 70 70" fill="none" xmlns="http://www.w3.org/2000/svg">
<path d="M27.6691 45.9375C27.6691 47.145 26.6906 48.125 25.4816 48.125C24.2727 48.125 23.2941 47.145 23.2941 45.9375V25.5209C23.2941 24.5686 23.911 23.7257 24.8181 23.4355C25.7295 23.1467 26.7168 23.4792 27.2666 24.2565L51.7331 58.8248C59.2318 53.534 64.1654 44.8219 64.1654 35C64.1654 18.9584 51.0404 5.83337 34.9987 5.83337C18.9571 5.83337 5.83203 18.9584 5.83203 35C5.83203 51.0417 18.9571 64.1667 34.9987 64.1667C39.6537 64.1667 44.0491 63.0336 47.9633 61.0721L27.6691 32.3984V45.9375ZM42.2525 24.0625C42.2525 22.855 43.231 21.875 44.44 21.875C45.6489 21.875 46.6275 22.855 46.6275 24.0625V44.2459L42.2525 38.0815V24.0625Z" fill="white"/>
</svg>
