<svg width="70" height="70" viewBox="0 0 70 70" fill="none" xmlns="http://www.w3.org/2000/svg">
<g clip-path="url(#clip0_147_4)">
<path d="M63.5233 53.1817L39.5174 2.20159C38.9097 0.923404 37.6502 0.0812663 36.2368 0.00812554C34.8202 -0.0867921 33.4683 0.614028 32.7294 1.82641L6.69227 43.9977C5.88396 45.2977 5.90096 46.948 6.73589 48.2311L19.4656 67.9443C20.4547 69.4641 22.3257 70.1521 24.0637 69.6352L61.0053 58.7081C62.1307 58.379 63.0581 57.5782 63.5477 56.5129C64.0307 55.4526 64.0224 54.2335 63.5251 53.1799L63.5233 53.1817ZM58.1487 55.3681L26.8016 64.6376C25.8454 64.922 24.9275 64.0931 25.1264 63.1281L36.3258 9.50265C36.5352 8.49928 37.9207 8.34048 38.3587 9.26882L59.091 53.2951C59.2765 53.6921 59.2788 54.1505 59.0971 54.5493C58.9155 54.9482 58.5683 55.2474 58.147 55.3681H58.1487Z" fill="#090A15"/>
</g>
<defs>
<clipPath id="clip0_147_4">
<rect width="70" height="70" fill="white"/>
</clipPath>
</defs>
</svg>
