<svg width="70" height="70" viewBox="0 0 70 70" fill="none" xmlns="http://www.w3.org/2000/svg">
<path d="M34.9897 40.2354C38.4401 40.2354 41.2372 37.4383 41.2372 33.9879C41.2372 30.5375 38.4401 27.7404 34.9897 27.7404C31.5393 27.7404 28.7422 30.5375 28.7422 33.9879C28.7422 37.4383 31.5393 40.2354 34.9897 40.2354Z" fill="#0EA3EB"/>
<path d="M34.9877 22.7766C43.061 22.7766 50.7302 23.9149 56.5607 25.9221C63.0361 28.1513 66.986 31.4471 66.986 33.9866C66.986 36.6916 62.7202 40.2034 55.7938 42.4983C50.2796 44.3253 42.902 45.3211 34.9877 45.3211C26.6735 45.3211 19.2126 44.3447 13.7624 42.4817C10.3503 41.3155 7.53249 39.7998 5.60109 38.1458C3.86554 36.6595 2.98932 35.1839 2.98932 33.9866C2.98932 31.4386 6.78807 28.1885 13.1238 25.9796C18.9567 23.9461 26.8137 22.7766 34.9877 22.7766ZM34.9877 19.7873C26.4961 19.7873 18.3101 21.0057 12.1397 23.1569C4.73126 25.7398 0 29.7877 0 33.9866C0 38.3233 5.07909 42.6729 12.7955 45.3104C18.5957 47.293 26.3703 48.3104 34.9877 48.3104C43.2004 48.3104 50.8884 47.2727 56.734 45.3359C64.756 42.678 69.9753 38.3812 69.9753 33.9866C69.9753 29.7725 65.0914 25.6973 57.5338 23.0955C51.3709 20.9739 43.3758 19.7873 34.9877 19.7873ZM25.2228 28.4176C29.256 21.424 34.0734 15.349 38.7249 11.3009C43.891 6.8051 48.7193 5.02992 50.9192 6.29852C53.2625 7.64983 54.1736 13.0997 52.7014 20.2461C51.5293 25.9357 48.7062 32.8242 44.7525 39.6801C40.599 46.8825 36.026 52.8578 31.6893 56.6485C28.9744 59.0217 26.2537 60.7055 23.856 61.5523C21.7015 62.3132 19.9854 62.3351 18.9482 61.7369C16.7409 60.464 15.8233 55.5497 17.0749 48.9577C18.2272 42.8891 21.1392 35.4988 25.2228 28.4176ZM22.6333 26.9242C18.391 34.2805 15.357 41.9803 14.1381 48.4C12.6745 56.1081 13.8174 62.2288 17.4548 64.3265C21.2117 66.493 27.517 64.2661 33.6566 58.8992C38.2718 54.8651 43.0371 48.6385 47.3421 41.1735C51.4449 34.0591 54.3866 26.8808 55.6292 20.8493C57.3344 12.5724 56.2195 5.9043 52.4125 3.70892C48.762 1.60378 42.792 3.79871 36.7625 9.04589C31.8457 13.3248 26.8237 19.6579 22.6333 26.9242ZM25.2322 39.6964C21.1874 32.7095 18.33 25.5019 17.146 19.4503C15.8309 12.7294 16.7044 7.65973 18.9021 6.38745C21.2432 5.03214 26.4198 6.96448 31.8758 11.8091C36.2197 15.6659 40.7778 21.5518 44.743 28.4013C48.9086 35.5967 51.8016 42.5428 52.92 48.1931C53.6202 51.7304 53.7203 54.9284 53.2565 57.4286C52.8397 59.6752 52.0016 61.1728 50.9653 61.7727C48.7601 63.0493 44.0442 61.3901 38.9583 57.0135C34.2762 52.9845 29.3277 46.7707 25.2322 39.6964ZM22.6451 41.1941C26.8997 48.5433 32.0555 55.0172 37.0084 59.2794C42.9554 64.3969 48.8291 66.4635 52.463 64.3598C56.2163 62.187 57.436 55.6122 55.8525 47.6127C54.6622 41.5995 51.6476 34.3614 47.3301 26.9036C43.2153 19.7959 38.4655 13.6624 33.8606 9.57373C27.5415 3.96284 21.2077 1.59853 17.4044 3.80037C13.7574 5.91162 12.6774 12.1801 14.2123 20.0244C15.4638 26.421 18.4426 33.9348 22.6451 41.1941Z" fill="#0EA3EB"/>
</svg>
