<svg width="70" height="70" viewBox="0 0 70 70" fill="none" xmlns="http://www.w3.org/2000/svg">
<path d="M33.6007 2.80005C23.5655 2.80005 15.4007 14.4093 15.4007 28.6809C15.4007 36.0536 17.5916 42.6926 21.0854 47.4032C20.9538 48.1103 20.9794 48.8378 21.1605 49.5339C21.3417 50.23 21.6738 50.8777 22.1334 51.431C22.593 51.9843 23.1688 52.4296 23.8199 52.7354C24.471 53.0411 25.1814 53.1998 25.9007 53.2C27.2002 53.2 28.4466 52.6838 29.3655 51.7649C30.2844 50.8459 30.8007 49.5996 30.8007 48.3C30.8007 47.0005 30.2844 45.7542 29.3655 44.8352C28.4466 43.9163 27.2002 43.4 25.9007 43.4C25.634 43.402 25.3678 43.4258 25.105 43.4711C22.6017 39.7422 21.0007 34.4561 21.0007 28.6809C21.0007 17.6867 26.7715 8.40005 33.6007 8.40005C39.3673 8.40005 44.3655 15.0325 45.7851 23.7125C47.7759 24.2837 49.759 25.0565 51.7022 25.9903C50.753 12.9787 42.9975 2.80005 33.6007 2.80005ZM31.5007 23.8C30.2011 23.8 28.9548 24.3163 28.0359 25.2352C27.1169 26.1542 26.6007 27.4005 26.6007 28.7C26.6007 29.9996 27.1169 31.2459 28.0359 32.1649C28.9548 33.0838 30.2011 33.6 31.5007 33.6C32.4167 33.5996 33.3142 33.3423 34.0913 32.8576C34.8685 32.3728 35.4943 31.6799 35.8976 30.8575C40.4472 30.5725 45.7052 31.9762 50.5593 34.8852C60.1633 40.6434 65.386 50.7123 61.9616 56.8723C60.836 58.8967 58.8082 60.3526 56.0964 61.0778C52.1918 62.1222 47.4036 61.5912 42.687 59.6942C41.1904 61.0858 39.5449 62.3922 37.7487 63.5934C42.4079 65.9468 47.3354 67.1946 51.8882 67.1946C53.8622 67.1946 55.7676 66.9624 57.5456 66.4864C61.7554 65.3594 64.9759 62.9754 66.8561 59.593C71.8737 50.5644 65.9798 37.6016 53.4386 30.0836C47.4711 26.5047 40.8604 24.8554 35.0499 25.3313C34.593 24.8487 34.0428 24.4641 33.4327 24.2009C32.8225 23.9377 32.1652 23.8013 31.5007 23.8ZM12.8249 32.654C2.91154 40.3134 -1.34042 51.5192 3.14798 59.593C5.02818 62.9754 8.24873 65.3594 12.4585 66.4864C14.2379 66.9624 16.1391 67.1946 18.1159 67.1946C23.4359 67.1946 29.2747 65.5056 34.5905 62.3192C40.5375 58.7538 44.9347 53.9613 47.4284 48.9481C49.88 48.681 51.8007 46.6215 51.8007 44.1C51.8007 41.398 49.6027 39.2 46.9007 39.2C44.1987 39.2 42.0007 41.398 42.0007 44.1C42.0007 44.8564 42.1856 45.5653 42.4929 46.2055C40.4714 50.3702 36.6995 54.5236 31.7112 57.5149C25.6968 61.1213 19.0402 62.454 13.905 61.0778C11.1946 60.3526 9.16812 58.8967 8.04252 56.8723C5.33492 52.0003 8.04553 44.6929 14.0417 38.9977C13.4663 36.9817 13.0545 34.859 12.8249 32.654Z" fill="#C46CFF"/>
</svg>
